<mxfile host="app.diagrams.net" modified="2024-05-02T13:03:51.939Z" agent="Mozilla/5.0 (Macintosh; Intel Mac OS X 10_15_7) AppleWebKit/605.1.15 (KHTML, like Gecko) Version/17.1 Safari/605.1.15" etag="DReg2RZ3uFy0GNH_C5xi" version="24.3.1" type="github">
  <diagram name="Page-1" id="b5b7bab2-c9e2-2cf4-8b2a-24fd1a2a6d21">
    <mxGraphModel dx="3392" dy="1730" grid="1" gridSize="10" guides="1" tooltips="1" connect="1" arrows="1" fold="1" page="1" pageScale="1" pageWidth="827" pageHeight="1169" background="none" math="0" shadow="0">
      <root>
        <mxCell id="0" />
        <mxCell id="1" parent="0" />
        <mxCell id="WELlDw33FFDGcxn5Jdse-15" value="홈화면" style="rounded=1;whiteSpace=wrap;html=1;arcSize=40;" vertex="1" parent="1">
          <mxGeometry x="200" y="80" width="120" height="40" as="geometry" />
        </mxCell>
        <mxCell id="WELlDw33FFDGcxn5Jdse-33" value="" style="edgeStyle=orthogonalEdgeStyle;rounded=0;orthogonalLoop=1;jettySize=auto;html=1;" edge="1" parent="1" source="WELlDw33FFDGcxn5Jdse-23" target="WELlDw33FFDGcxn5Jdse-15">
          <mxGeometry relative="1" as="geometry" />
        </mxCell>
        <mxCell id="WELlDw33FFDGcxn5Jdse-23" value="" style="ellipse;html=1;shape=startState;fillColor=#000000;strokeColor=#ff0000;" vertex="1" parent="1">
          <mxGeometry x="245" y="10" width="30" height="30" as="geometry" />
        </mxCell>
        <mxCell id="WELlDw33FFDGcxn5Jdse-35" value="" style="edgeStyle=orthogonalEdgeStyle;rounded=0;orthogonalLoop=1;jettySize=auto;html=1;fillColor=#f8cecc;strokeColor=#b85450;" edge="1" parent="1" source="WELlDw33FFDGcxn5Jdse-26" target="WELlDw33FFDGcxn5Jdse-30">
          <mxGeometry relative="1" as="geometry" />
        </mxCell>
        <mxCell id="WELlDw33FFDGcxn5Jdse-26" value="작품 선택" style="rounded=1;whiteSpace=wrap;html=1;arcSize=40;fillColor=#f8cecc;strokeColor=#b85450;" vertex="1" parent="1">
          <mxGeometry x="720" y="200" width="120" height="40" as="geometry" />
        </mxCell>
        <mxCell id="WELlDw33FFDGcxn5Jdse-32" value="" style="edgeStyle=orthogonalEdgeStyle;rounded=0;orthogonalLoop=1;jettySize=auto;html=1;fillColor=#f8cecc;strokeColor=#b85450;" edge="1" parent="1" source="WELlDw33FFDGcxn5Jdse-30" target="WELlDw33FFDGcxn5Jdse-31">
          <mxGeometry relative="1" as="geometry" />
        </mxCell>
        <mxCell id="WELlDw33FFDGcxn5Jdse-30" value="작품 선택" style="rounded=1;whiteSpace=wrap;html=1;arcSize=40;fillColor=#f8cecc;strokeColor=#b85450;" vertex="1" parent="1">
          <mxGeometry x="720" y="280" width="120" height="40" as="geometry" />
        </mxCell>
        <mxCell id="WELlDw33FFDGcxn5Jdse-38" value="" style="edgeStyle=orthogonalEdgeStyle;rounded=0;orthogonalLoop=1;jettySize=auto;html=1;fillColor=#f8cecc;strokeColor=#b85450;" edge="1" parent="1" source="WELlDw33FFDGcxn5Jdse-31" target="WELlDw33FFDGcxn5Jdse-36">
          <mxGeometry relative="1" as="geometry" />
        </mxCell>
        <mxCell id="WELlDw33FFDGcxn5Jdse-31" value="작품 상세 페이지" style="rounded=1;whiteSpace=wrap;html=1;arcSize=40;fillColor=#f8cecc;strokeColor=#b85450;" vertex="1" parent="1">
          <mxGeometry x="720" y="360" width="120" height="40" as="geometry" />
        </mxCell>
        <mxCell id="WELlDw33FFDGcxn5Jdse-220" style="edgeStyle=orthogonalEdgeStyle;rounded=0;orthogonalLoop=1;jettySize=auto;html=1;exitX=0.056;exitY=0.4;exitDx=0;exitDy=0;exitPerimeter=0;strokeColor=#4A2500;" edge="1" parent="1" source="WELlDw33FFDGcxn5Jdse-36" target="WELlDw33FFDGcxn5Jdse-43">
          <mxGeometry relative="1" as="geometry" />
        </mxCell>
        <mxCell id="WELlDw33FFDGcxn5Jdse-221" style="edgeStyle=orthogonalEdgeStyle;rounded=0;orthogonalLoop=1;jettySize=auto;html=1;exitX=0.278;exitY=0.8;exitDx=0;exitDy=0;exitPerimeter=0;fillColor=#dae8fc;strokeColor=#6c8ebf;" edge="1" parent="1" source="WELlDw33FFDGcxn5Jdse-36" target="WELlDw33FFDGcxn5Jdse-44">
          <mxGeometry relative="1" as="geometry" />
        </mxCell>
        <mxCell id="WELlDw33FFDGcxn5Jdse-222" style="edgeStyle=orthogonalEdgeStyle;rounded=0;orthogonalLoop=1;jettySize=auto;html=1;fillColor=#f8cecc;strokeColor=#b85450;" edge="1" parent="1" source="WELlDw33FFDGcxn5Jdse-36" target="WELlDw33FFDGcxn5Jdse-40">
          <mxGeometry relative="1" as="geometry" />
        </mxCell>
        <mxCell id="WELlDw33FFDGcxn5Jdse-223" style="edgeStyle=orthogonalEdgeStyle;rounded=0;orthogonalLoop=1;jettySize=auto;html=1;entryX=0.5;entryY=0;entryDx=0;entryDy=0;exitX=0.722;exitY=0.267;exitDx=0;exitDy=0;exitPerimeter=0;fillColor=#f8cecc;strokeColor=#b85450;" edge="1" parent="1" source="WELlDw33FFDGcxn5Jdse-36" target="WELlDw33FFDGcxn5Jdse-41">
          <mxGeometry relative="1" as="geometry" />
        </mxCell>
        <mxCell id="WELlDw33FFDGcxn5Jdse-224" style="edgeStyle=orthogonalEdgeStyle;rounded=0;orthogonalLoop=1;jettySize=auto;html=1;entryX=0.5;entryY=0;entryDx=0;entryDy=0;exitX=0.924;exitY=0.7;exitDx=0;exitDy=0;exitPerimeter=0;fillColor=#f8cecc;strokeColor=#b85450;" edge="1" parent="1" source="WELlDw33FFDGcxn5Jdse-36" target="WELlDw33FFDGcxn5Jdse-39">
          <mxGeometry relative="1" as="geometry" />
        </mxCell>
        <mxCell id="WELlDw33FFDGcxn5Jdse-36" value="" style="shape=line;html=1;strokeWidth=6;" vertex="1" parent="1">
          <mxGeometry x="420" y="440" width="720" height="10" as="geometry" />
        </mxCell>
        <mxCell id="WELlDw33FFDGcxn5Jdse-56" value="" style="edgeStyle=orthogonalEdgeStyle;rounded=0;orthogonalLoop=1;jettySize=auto;html=1;entryX=0.75;entryY=0.5;entryDx=0;entryDy=0;entryPerimeter=0;fillColor=#f8cecc;strokeColor=#b85450;" edge="1" parent="1" source="WELlDw33FFDGcxn5Jdse-39" target="WELlDw33FFDGcxn5Jdse-53">
          <mxGeometry relative="1" as="geometry" />
        </mxCell>
        <mxCell id="WELlDw33FFDGcxn5Jdse-39" value="작가 상세 정보" style="rounded=1;whiteSpace=wrap;html=1;arcSize=40;fillColor=#f8cecc;strokeColor=#b85450;" vertex="1" parent="1">
          <mxGeometry x="1040" y="480" width="120" height="40" as="geometry" />
        </mxCell>
        <mxCell id="WELlDw33FFDGcxn5Jdse-57" value="" style="edgeStyle=orthogonalEdgeStyle;rounded=0;orthogonalLoop=1;jettySize=auto;html=1;entryX=0.25;entryY=0.5;entryDx=0;entryDy=0;entryPerimeter=0;fillColor=#f8cecc;strokeColor=#b85450;" edge="1" parent="1" source="WELlDw33FFDGcxn5Jdse-40" target="WELlDw33FFDGcxn5Jdse-53">
          <mxGeometry relative="1" as="geometry" />
        </mxCell>
        <mxCell id="WELlDw33FFDGcxn5Jdse-40" value="작가의 다른 작품" style="rounded=1;whiteSpace=wrap;html=1;arcSize=40;fillColor=#f8cecc;strokeColor=#b85450;" vertex="1" parent="1">
          <mxGeometry x="720" y="480" width="120" height="40" as="geometry" />
        </mxCell>
        <mxCell id="WELlDw33FFDGcxn5Jdse-55" value="" style="edgeStyle=orthogonalEdgeStyle;rounded=0;orthogonalLoop=1;jettySize=auto;html=1;fillColor=#f8cecc;strokeColor=#b85450;" edge="1" parent="1" source="WELlDw33FFDGcxn5Jdse-41" target="WELlDw33FFDGcxn5Jdse-53">
          <mxGeometry relative="1" as="geometry" />
        </mxCell>
        <mxCell id="WELlDw33FFDGcxn5Jdse-41" value="작가 거래 후기" style="rounded=1;whiteSpace=wrap;html=1;arcSize=40;fillColor=#f8cecc;strokeColor=#b85450;" vertex="1" parent="1">
          <mxGeometry x="880" y="480" width="120" height="40" as="geometry" />
        </mxCell>
        <mxCell id="WELlDw33FFDGcxn5Jdse-83" value="" style="edgeStyle=orthogonalEdgeStyle;rounded=0;orthogonalLoop=1;jettySize=auto;html=1;" edge="1" parent="1" source="WELlDw33FFDGcxn5Jdse-43">
          <mxGeometry relative="1" as="geometry">
            <mxPoint x="540" y="570" as="targetPoint" />
          </mxGeometry>
        </mxCell>
        <mxCell id="WELlDw33FFDGcxn5Jdse-43" value="하트 클릭" style="rounded=1;whiteSpace=wrap;html=1;arcSize=40;fillColor=#9E4E00;strokeColor=#4A2500;fontColor=#000000;" vertex="1" parent="1">
          <mxGeometry x="400" y="480" width="120" height="40" as="geometry" />
        </mxCell>
        <mxCell id="WELlDw33FFDGcxn5Jdse-90" value="" style="edgeStyle=orthogonalEdgeStyle;rounded=0;orthogonalLoop=1;jettySize=auto;html=1;entryX=0.5;entryY=0;entryDx=0;entryDy=0;" edge="1" parent="1" source="WELlDw33FFDGcxn5Jdse-44">
          <mxGeometry relative="1" as="geometry">
            <mxPoint x="540" y="570" as="targetPoint" />
          </mxGeometry>
        </mxCell>
        <mxCell id="WELlDw33FFDGcxn5Jdse-44" value="문의하기" style="rounded=1;whiteSpace=wrap;html=1;arcSize=40;fillColor=#dae8fc;strokeColor=#6c8ebf;" vertex="1" parent="1">
          <mxGeometry x="560" y="480" width="120" height="40" as="geometry" />
        </mxCell>
        <mxCell id="WELlDw33FFDGcxn5Jdse-63" value="" style="edgeStyle=orthogonalEdgeStyle;rounded=0;orthogonalLoop=1;jettySize=auto;html=1;fillColor=#f8cecc;strokeColor=#b85450;" edge="1" parent="1" source="WELlDw33FFDGcxn5Jdse-53" target="WELlDw33FFDGcxn5Jdse-62">
          <mxGeometry relative="1" as="geometry" />
        </mxCell>
        <mxCell id="WELlDw33FFDGcxn5Jdse-53" value="" style="shape=line;html=1;strokeWidth=6;strokeColor=#b85450;fillColor=#f8cecc;" vertex="1" parent="1">
          <mxGeometry x="800" y="560" width="280" height="10" as="geometry" />
        </mxCell>
        <mxCell id="WELlDw33FFDGcxn5Jdse-168" value="" style="edgeStyle=orthogonalEdgeStyle;rounded=0;orthogonalLoop=1;jettySize=auto;html=1;fillColor=#f8cecc;strokeColor=#b85450;" edge="1" parent="1" source="WELlDw33FFDGcxn5Jdse-62" target="WELlDw33FFDGcxn5Jdse-166">
          <mxGeometry relative="1" as="geometry" />
        </mxCell>
        <mxCell id="WELlDw33FFDGcxn5Jdse-62" value="작가 상세 페이지" style="rounded=1;whiteSpace=wrap;html=1;arcSize=40;fillColor=#f8cecc;strokeColor=#b85450;" vertex="1" parent="1">
          <mxGeometry x="880" y="600" width="120" height="40" as="geometry" />
        </mxCell>
        <mxCell id="WELlDw33FFDGcxn5Jdse-86" value="" style="edgeStyle=orthogonalEdgeStyle;rounded=0;orthogonalLoop=1;jettySize=auto;html=1;fillColor=#1ba1e2;strokeColor=#4A2500;fontColor=#000000;" edge="1" parent="1" source="WELlDw33FFDGcxn5Jdse-84" target="WELlDw33FFDGcxn5Jdse-85">
          <mxGeometry relative="1" as="geometry" />
        </mxCell>
        <mxCell id="WELlDw33FFDGcxn5Jdse-84" value="선호 작품 등록" style="rounded=1;whiteSpace=wrap;html=1;arcSize=40;fillColor=#9E4E00;strokeColor=#4A2500;fontColor=#000000;" vertex="1" parent="1">
          <mxGeometry x="400" y="680" width="120" height="40" as="geometry" />
        </mxCell>
        <mxCell id="WELlDw33FFDGcxn5Jdse-85" value="선호 작품 리스트에&lt;div&gt;추가&lt;/div&gt;" style="rounded=1;whiteSpace=wrap;html=1;arcSize=40;fillColor=#9E4E00;strokeColor=#4A2500;fontColor=#000000;" vertex="1" parent="1">
          <mxGeometry x="400" y="760" width="120" height="40" as="geometry" />
        </mxCell>
        <mxCell id="WELlDw33FFDGcxn5Jdse-119" style="edgeStyle=orthogonalEdgeStyle;rounded=0;orthogonalLoop=1;jettySize=auto;html=1;fillColor=#dae8fc;strokeColor=#6c8ebf;" edge="1" parent="1" source="WELlDw33FFDGcxn5Jdse-92" target="WELlDw33FFDGcxn5Jdse-114">
          <mxGeometry relative="1" as="geometry" />
        </mxCell>
        <mxCell id="WELlDw33FFDGcxn5Jdse-92" value="채팅 페이지" style="rounded=1;whiteSpace=wrap;html=1;arcSize=40;fillColor=#dae8fc;strokeColor=#6c8ebf;" vertex="1" parent="1">
          <mxGeometry x="560" y="680" width="120" height="40" as="geometry" />
        </mxCell>
        <mxCell id="WELlDw33FFDGcxn5Jdse-101" value="" style="edgeStyle=orthogonalEdgeStyle;rounded=0;orthogonalLoop=1;jettySize=auto;html=1;fillColor=#b1ddf0;strokeColor=#10739e;" edge="1" parent="1" source="WELlDw33FFDGcxn5Jdse-98" target="WELlDw33FFDGcxn5Jdse-100">
          <mxGeometry relative="1" as="geometry" />
        </mxCell>
        <mxCell id="WELlDw33FFDGcxn5Jdse-98" value="회원가입 안내 페이지" style="rounded=1;whiteSpace=wrap;html=1;arcSize=40;fillColor=#b1ddf0;strokeColor=#10739e;" vertex="1" parent="1">
          <mxGeometry x="-660" y="90" width="120" height="40" as="geometry" />
        </mxCell>
        <mxCell id="WELlDw33FFDGcxn5Jdse-158" value="" style="edgeStyle=orthogonalEdgeStyle;rounded=0;orthogonalLoop=1;jettySize=auto;html=1;fillColor=#b1ddf0;strokeColor=#10739e;" edge="1" parent="1" source="WELlDw33FFDGcxn5Jdse-100" target="WELlDw33FFDGcxn5Jdse-155">
          <mxGeometry relative="1" as="geometry" />
        </mxCell>
        <mxCell id="WELlDw33FFDGcxn5Jdse-100" value="로그인 페이지" style="whiteSpace=wrap;html=1;fillColor=#b1ddf0;strokeColor=#10739e;rounded=1;arcSize=40;" vertex="1" parent="1">
          <mxGeometry x="-660" y="170" width="120" height="40" as="geometry" />
        </mxCell>
        <mxCell id="WELlDw33FFDGcxn5Jdse-112" value="" style="edgeStyle=orthogonalEdgeStyle;rounded=0;orthogonalLoop=1;jettySize=auto;html=1;fillColor=#dae8fc;strokeColor=#6c8ebf;" edge="1" parent="1" source="WELlDw33FFDGcxn5Jdse-107" target="WELlDw33FFDGcxn5Jdse-111">
          <mxGeometry relative="1" as="geometry" />
        </mxCell>
        <mxCell id="WELlDw33FFDGcxn5Jdse-113" value="" style="edgeStyle=orthogonalEdgeStyle;rounded=0;orthogonalLoop=1;jettySize=auto;html=1;entryX=0.5;entryY=0;entryDx=0;entryDy=0;fillColor=#dae8fc;strokeColor=#6c8ebf;" edge="1" parent="1" source="WELlDw33FFDGcxn5Jdse-107" target="WELlDw33FFDGcxn5Jdse-110">
          <mxGeometry relative="1" as="geometry" />
        </mxCell>
        <mxCell id="WELlDw33FFDGcxn5Jdse-107" value="" style="shape=line;html=1;strokeWidth=6;strokeColor=#6c8ebf;fillColor=#dae8fc;" vertex="1" parent="1">
          <mxGeometry x="520" y="840" width="200" height="10" as="geometry" />
        </mxCell>
        <mxCell id="WELlDw33FFDGcxn5Jdse-124" value="" style="edgeStyle=orthogonalEdgeStyle;rounded=0;orthogonalLoop=1;jettySize=auto;html=1;fillColor=#dae8fc;strokeColor=#6c8ebf;" edge="1" parent="1" source="WELlDw33FFDGcxn5Jdse-110" target="WELlDw33FFDGcxn5Jdse-123">
          <mxGeometry relative="1" as="geometry" />
        </mxCell>
        <mxCell id="WELlDw33FFDGcxn5Jdse-110" value="신고하기" style="rounded=1;whiteSpace=wrap;html=1;arcSize=40;fillColor=#dae8fc;strokeColor=#6c8ebf;" vertex="1" parent="1">
          <mxGeometry x="480" y="920" width="120" height="40" as="geometry" />
        </mxCell>
        <mxCell id="WELlDw33FFDGcxn5Jdse-146" style="edgeStyle=orthogonalEdgeStyle;rounded=0;orthogonalLoop=1;jettySize=auto;html=1;entryX=0;entryY=0.5;entryDx=0;entryDy=0;fillColor=#dae8fc;strokeColor=#6c8ebf;" edge="1" parent="1" source="WELlDw33FFDGcxn5Jdse-111" target="WELlDw33FFDGcxn5Jdse-145">
          <mxGeometry relative="1" as="geometry" />
        </mxCell>
        <mxCell id="WELlDw33FFDGcxn5Jdse-111" value="작품 구매" style="rounded=1;whiteSpace=wrap;html=1;arcSize=40;fillColor=#dae8fc;strokeColor=#6c8ebf;" vertex="1" parent="1">
          <mxGeometry x="640" y="920" width="120" height="40" as="geometry" />
        </mxCell>
        <mxCell id="WELlDw33FFDGcxn5Jdse-122" value="" style="edgeStyle=orthogonalEdgeStyle;rounded=0;orthogonalLoop=1;jettySize=auto;html=1;" edge="1" parent="1" source="WELlDw33FFDGcxn5Jdse-114" target="WELlDw33FFDGcxn5Jdse-107">
          <mxGeometry relative="1" as="geometry" />
        </mxCell>
        <mxCell id="WELlDw33FFDGcxn5Jdse-114" value="채팅하기" style="rounded=1;whiteSpace=wrap;html=1;arcSize=40;fillColor=#dae8fc;strokeColor=#6c8ebf;" vertex="1" parent="1">
          <mxGeometry x="560" y="760" width="120" height="40" as="geometry" />
        </mxCell>
        <mxCell id="WELlDw33FFDGcxn5Jdse-129" value="" style="edgeStyle=orthogonalEdgeStyle;rounded=0;orthogonalLoop=1;jettySize=auto;html=1;fillColor=#dae8fc;strokeColor=#6c8ebf;" edge="1" parent="1" source="WELlDw33FFDGcxn5Jdse-123" target="WELlDw33FFDGcxn5Jdse-127">
          <mxGeometry relative="1" as="geometry">
            <Array as="points">
              <mxPoint x="540" y="1140" />
              <mxPoint x="620" y="1140" />
            </Array>
          </mxGeometry>
        </mxCell>
        <mxCell id="WELlDw33FFDGcxn5Jdse-123" value="피드백 전달" style="rounded=1;whiteSpace=wrap;html=1;arcSize=40;fillColor=#dae8fc;strokeColor=#6c8ebf;" vertex="1" parent="1">
          <mxGeometry x="480" y="1000" width="120" height="40" as="geometry" />
        </mxCell>
        <mxCell id="WELlDw33FFDGcxn5Jdse-150" style="edgeStyle=orthogonalEdgeStyle;rounded=0;orthogonalLoop=1;jettySize=auto;html=1;entryX=0;entryY=0.5;entryDx=0;entryDy=0;fillColor=#dae8fc;strokeColor=#6c8ebf;" edge="1" parent="1" source="WELlDw33FFDGcxn5Jdse-125" target="WELlDw33FFDGcxn5Jdse-132">
          <mxGeometry relative="1" as="geometry" />
        </mxCell>
        <mxCell id="WELlDw33FFDGcxn5Jdse-125" value="고객 결제 완료" style="rounded=1;whiteSpace=wrap;html=1;arcSize=40;fillColor=#dae8fc;strokeColor=#6c8ebf;" vertex="1" parent="1">
          <mxGeometry x="640" y="1000" width="120" height="40" as="geometry" />
        </mxCell>
        <mxCell id="WELlDw33FFDGcxn5Jdse-127" value="" style="shape=line;html=1;strokeWidth=6;strokeColor=#6c8ebf;fillColor=#dae8fc;" vertex="1" parent="1">
          <mxGeometry x="520" y="1160" width="200" height="10" as="geometry" />
        </mxCell>
        <mxCell id="WELlDw33FFDGcxn5Jdse-128" value="" style="edgeStyle=orthogonalEdgeStyle;html=1;verticalAlign=bottom;endArrow=open;endSize=8;strokeColor=#6c8ebf;rounded=0;entryX=0.5;entryY=0;entryDx=0;entryDy=0;fillColor=#dae8fc;" edge="1" source="WELlDw33FFDGcxn5Jdse-127" parent="1" target="WELlDw33FFDGcxn5Jdse-131">
          <mxGeometry relative="1" as="geometry">
            <mxPoint x="620" y="1240" as="targetPoint" />
          </mxGeometry>
        </mxCell>
        <mxCell id="WELlDw33FFDGcxn5Jdse-131" value="채팅 종료" style="rounded=1;whiteSpace=wrap;html=1;arcSize=40;fillColor=#dae8fc;strokeColor=#6c8ebf;" vertex="1" parent="1">
          <mxGeometry x="560" y="1200" width="120" height="40" as="geometry" />
        </mxCell>
        <mxCell id="WELlDw33FFDGcxn5Jdse-139" value="" style="swimlane;startSize=0;fillColor=#dae8fc;strokeColor=#6c8ebf;" vertex="1" parent="1">
          <mxGeometry x="800" y="880" width="200" height="280" as="geometry">
            <mxRectangle x="1141" y="670" width="50" height="40" as="alternateBounds" />
          </mxGeometry>
        </mxCell>
        <mxCell id="WELlDw33FFDGcxn5Jdse-140" value="판매자" style="text;html=1;align=center;verticalAlign=middle;resizable=0;points=[];autosize=1;strokeColor=#6c8ebf;fillColor=#dae8fc;" vertex="1" parent="WELlDw33FFDGcxn5Jdse-139">
          <mxGeometry x="19" width="50" height="30" as="geometry" />
        </mxCell>
        <mxCell id="WELlDw33FFDGcxn5Jdse-135" value="" style="edgeStyle=orthogonalEdgeStyle;rounded=0;orthogonalLoop=1;jettySize=auto;html=1;fillColor=#dae8fc;strokeColor=#6c8ebf;" edge="1" parent="WELlDw33FFDGcxn5Jdse-139" source="WELlDw33FFDGcxn5Jdse-132" target="WELlDw33FFDGcxn5Jdse-134">
          <mxGeometry relative="1" as="geometry" />
        </mxCell>
        <mxCell id="WELlDw33FFDGcxn5Jdse-132" value="작품 상세페이지 내&amp;nbsp;&lt;div&gt;판매 완료 버튼&lt;/div&gt;" style="rounded=1;whiteSpace=wrap;html=1;arcSize=40;fillColor=#dae8fc;strokeColor=#6c8ebf;" vertex="1" parent="WELlDw33FFDGcxn5Jdse-139">
          <mxGeometry x="40" y="120" width="120" height="40" as="geometry" />
        </mxCell>
        <mxCell id="WELlDw33FFDGcxn5Jdse-134" value="구매자 선택" style="rounded=1;whiteSpace=wrap;html=1;arcSize=40;fillColor=#dae8fc;strokeColor=#6c8ebf;" vertex="1" parent="WELlDw33FFDGcxn5Jdse-139">
          <mxGeometry x="40" y="200" width="120" height="40" as="geometry" />
        </mxCell>
        <mxCell id="WELlDw33FFDGcxn5Jdse-145" value="주문서 발송" style="rounded=1;whiteSpace=wrap;html=1;arcSize=40;fillColor=#dae8fc;strokeColor=#6c8ebf;" vertex="1" parent="WELlDw33FFDGcxn5Jdse-139">
          <mxGeometry x="40" y="40" width="120" height="40" as="geometry" />
        </mxCell>
        <mxCell id="WELlDw33FFDGcxn5Jdse-148" style="edgeStyle=orthogonalEdgeStyle;rounded=0;orthogonalLoop=1;jettySize=auto;html=1;entryX=0.5;entryY=0;entryDx=0;entryDy=0;exitX=0.5;exitY=1;exitDx=0;exitDy=0;fillColor=#dae8fc;strokeColor=#6c8ebf;" edge="1" parent="1" source="WELlDw33FFDGcxn5Jdse-145" target="WELlDw33FFDGcxn5Jdse-125">
          <mxGeometry relative="1" as="geometry">
            <Array as="points">
              <mxPoint x="900" y="980" />
              <mxPoint x="700" y="980" />
            </Array>
          </mxGeometry>
        </mxCell>
        <mxCell id="WELlDw33FFDGcxn5Jdse-154" style="edgeStyle=orthogonalEdgeStyle;rounded=0;orthogonalLoop=1;jettySize=auto;html=1;fillColor=#dae8fc;strokeColor=#6c8ebf;" edge="1" parent="1" source="WELlDw33FFDGcxn5Jdse-151" target="WELlDw33FFDGcxn5Jdse-127">
          <mxGeometry relative="1" as="geometry" />
        </mxCell>
        <mxCell id="WELlDw33FFDGcxn5Jdse-151" value="구매 완료" style="rounded=1;whiteSpace=wrap;html=1;arcSize=40;fillColor=#dae8fc;strokeColor=#6c8ebf;" vertex="1" parent="1">
          <mxGeometry x="640" y="1080" width="120" height="40" as="geometry" />
        </mxCell>
        <mxCell id="WELlDw33FFDGcxn5Jdse-152" style="edgeStyle=orthogonalEdgeStyle;rounded=0;orthogonalLoop=1;jettySize=auto;html=1;entryX=1;entryY=0.5;entryDx=0;entryDy=0;fillColor=#dae8fc;strokeColor=#6c8ebf;" edge="1" parent="1" source="WELlDw33FFDGcxn5Jdse-134" target="WELlDw33FFDGcxn5Jdse-151">
          <mxGeometry relative="1" as="geometry" />
        </mxCell>
        <mxCell id="WELlDw33FFDGcxn5Jdse-155" value="회원" style="rhombus;whiteSpace=wrap;html=1;fillColor=#b1ddf0;strokeColor=#10739e;" vertex="1" parent="1">
          <mxGeometry x="-640" y="250" width="80" height="40" as="geometry" />
        </mxCell>
        <mxCell id="WELlDw33FFDGcxn5Jdse-156" value="no" style="edgeStyle=orthogonalEdgeStyle;html=1;align=left;verticalAlign=bottom;endArrow=open;endSize=8;strokeColor=#10739e;rounded=0;entryX=0;entryY=0.5;entryDx=0;entryDy=0;fillColor=#b1ddf0;" edge="1" source="WELlDw33FFDGcxn5Jdse-155" parent="1" target="WELlDw33FFDGcxn5Jdse-159">
          <mxGeometry x="-1" relative="1" as="geometry">
            <mxPoint x="-540" y="290" as="targetPoint" />
          </mxGeometry>
        </mxCell>
        <mxCell id="WELlDw33FFDGcxn5Jdse-157" value="yes" style="edgeStyle=orthogonalEdgeStyle;html=1;align=left;verticalAlign=top;endArrow=open;endSize=8;strokeColor=#10739e;rounded=0;entryX=0.5;entryY=0;entryDx=0;entryDy=0;fillColor=#b1ddf0;" edge="1" source="WELlDw33FFDGcxn5Jdse-155" parent="1" target="WELlDw33FFDGcxn5Jdse-163">
          <mxGeometry x="-1" relative="1" as="geometry">
            <mxPoint x="-600" y="330" as="targetPoint" />
          </mxGeometry>
        </mxCell>
        <mxCell id="WELlDw33FFDGcxn5Jdse-161" value="" style="edgeStyle=orthogonalEdgeStyle;rounded=0;orthogonalLoop=1;jettySize=auto;html=1;fillColor=#b1ddf0;strokeColor=#10739e;" edge="1" parent="1" source="WELlDw33FFDGcxn5Jdse-159" target="WELlDw33FFDGcxn5Jdse-160">
          <mxGeometry relative="1" as="geometry" />
        </mxCell>
        <mxCell id="WELlDw33FFDGcxn5Jdse-159" value="회원가입 페이지" style="whiteSpace=wrap;html=1;fillColor=#b1ddf0;strokeColor=#10739e;rounded=1;arcSize=40;" vertex="1" parent="1">
          <mxGeometry x="-500" y="250" width="120" height="40" as="geometry" />
        </mxCell>
        <mxCell id="WELlDw33FFDGcxn5Jdse-162" value="" style="edgeStyle=orthogonalEdgeStyle;rounded=0;orthogonalLoop=1;jettySize=auto;html=1;fillColor=#b1ddf0;strokeColor=#10739e;" edge="1" parent="1" source="WELlDw33FFDGcxn5Jdse-160" target="WELlDw33FFDGcxn5Jdse-100">
          <mxGeometry relative="1" as="geometry" />
        </mxCell>
        <mxCell id="WELlDw33FFDGcxn5Jdse-160" value="회원가입 완료" style="whiteSpace=wrap;html=1;fillColor=#b1ddf0;strokeColor=#10739e;rounded=1;arcSize=40;" vertex="1" parent="1">
          <mxGeometry x="-500" y="170" width="120" height="40" as="geometry" />
        </mxCell>
        <mxCell id="WELlDw33FFDGcxn5Jdse-164" style="edgeStyle=orthogonalEdgeStyle;rounded=0;orthogonalLoop=1;jettySize=auto;html=1;fillColor=#dae8fc;strokeColor=#6c8ebf;" edge="1" parent="1" source="WELlDw33FFDGcxn5Jdse-163">
          <mxGeometry relative="1" as="geometry">
            <mxPoint x="200" y="100" as="targetPoint" />
            <Array as="points">
              <mxPoint x="-600" y="400" />
              <mxPoint x="-320" y="400" />
              <mxPoint x="-320" y="100" />
            </Array>
          </mxGeometry>
        </mxCell>
        <mxCell id="WELlDw33FFDGcxn5Jdse-163" value="로그인 완료" style="whiteSpace=wrap;html=1;fillColor=#b1ddf0;strokeColor=#10739e;rounded=1;arcSize=40;" vertex="1" parent="1">
          <mxGeometry x="-660" y="330" width="120" height="40" as="geometry" />
        </mxCell>
        <mxCell id="WELlDw33FFDGcxn5Jdse-170" style="edgeStyle=orthogonalEdgeStyle;rounded=0;orthogonalLoop=1;jettySize=auto;html=1;exitX=0.25;exitY=0.5;exitDx=0;exitDy=0;exitPerimeter=0;fillColor=#f8cecc;strokeColor=#b85450;" edge="1" parent="1" source="WELlDw33FFDGcxn5Jdse-166" target="WELlDw33FFDGcxn5Jdse-169">
          <mxGeometry relative="1" as="geometry" />
        </mxCell>
        <mxCell id="WELlDw33FFDGcxn5Jdse-172" style="edgeStyle=orthogonalEdgeStyle;rounded=0;orthogonalLoop=1;jettySize=auto;html=1;entryX=0.5;entryY=0;entryDx=0;entryDy=0;exitX=0.75;exitY=0.5;exitDx=0;exitDy=0;exitPerimeter=0;fillColor=#f8cecc;strokeColor=#b85450;" edge="1" parent="1" source="WELlDw33FFDGcxn5Jdse-166" target="WELlDw33FFDGcxn5Jdse-171">
          <mxGeometry relative="1" as="geometry" />
        </mxCell>
        <mxCell id="WELlDw33FFDGcxn5Jdse-166" value="" style="shape=line;html=1;strokeWidth=6;strokeColor=#b85450;fillColor=#f8cecc;" vertex="1" parent="1">
          <mxGeometry x="840" y="680" width="200" height="10" as="geometry" />
        </mxCell>
        <mxCell id="WELlDw33FFDGcxn5Jdse-173" style="edgeStyle=orthogonalEdgeStyle;rounded=0;orthogonalLoop=1;jettySize=auto;html=1;exitX=1;exitY=0.5;exitDx=0;exitDy=0;entryX=1;entryY=0.5;entryDx=0;entryDy=0;fillColor=#f8cecc;strokeColor=#b85450;" edge="1" parent="1" source="WELlDw33FFDGcxn5Jdse-171" target="WELlDw33FFDGcxn5Jdse-31">
          <mxGeometry relative="1" as="geometry">
            <mxPoint x="920" y="400" as="targetPoint" />
            <Array as="points">
              <mxPoint x="1200" y="740" />
              <mxPoint x="1200" y="380" />
            </Array>
          </mxGeometry>
        </mxCell>
        <mxCell id="WELlDw33FFDGcxn5Jdse-169" value="작가 판매 작품" style="rounded=1;whiteSpace=wrap;html=1;arcSize=40;fillColor=#f8cecc;strokeColor=#b85450;" vertex="1" parent="1">
          <mxGeometry x="800" y="720" width="120" height="40" as="geometry" />
        </mxCell>
        <mxCell id="WELlDw33FFDGcxn5Jdse-171" value="작가 판매 작품" style="rounded=1;whiteSpace=wrap;html=1;arcSize=40;fillColor=#f8cecc;strokeColor=#b85450;" vertex="1" parent="1">
          <mxGeometry x="960" y="720" width="120" height="40" as="geometry" />
        </mxCell>
        <mxCell id="WELlDw33FFDGcxn5Jdse-179" style="edgeStyle=orthogonalEdgeStyle;rounded=0;orthogonalLoop=1;jettySize=auto;html=1;entryX=0.5;entryY=0;entryDx=0;entryDy=0;exitX=0.945;exitY=0.557;exitDx=0;exitDy=0;exitPerimeter=0;fillColor=#f8cecc;strokeColor=#b85450;" edge="1" parent="1" source="WELlDw33FFDGcxn5Jdse-175" target="WELlDw33FFDGcxn5Jdse-26">
          <mxGeometry relative="1" as="geometry" />
        </mxCell>
        <mxCell id="WELlDw33FFDGcxn5Jdse-186" style="edgeStyle=orthogonalEdgeStyle;rounded=0;orthogonalLoop=1;jettySize=auto;html=1;entryX=0.5;entryY=0;entryDx=0;entryDy=0;exitX=0.052;exitY=0.729;exitDx=0;exitDy=0;exitPerimeter=0;" edge="1" parent="1" source="WELlDw33FFDGcxn5Jdse-175" target="WELlDw33FFDGcxn5Jdse-182">
          <mxGeometry relative="1" as="geometry" />
        </mxCell>
        <mxCell id="WELlDw33FFDGcxn5Jdse-187" style="edgeStyle=orthogonalEdgeStyle;rounded=0;orthogonalLoop=1;jettySize=auto;html=1;entryX=0.5;entryY=0;entryDx=0;entryDy=0;exitX=0.197;exitY=0.369;exitDx=0;exitDy=0;exitPerimeter=0;" edge="1" parent="1" source="WELlDw33FFDGcxn5Jdse-175" target="WELlDw33FFDGcxn5Jdse-180">
          <mxGeometry relative="1" as="geometry" />
        </mxCell>
        <mxCell id="WELlDw33FFDGcxn5Jdse-188" style="edgeStyle=orthogonalEdgeStyle;rounded=0;orthogonalLoop=1;jettySize=auto;html=1;exitX=0.71;exitY=0.583;exitDx=0;exitDy=0;exitPerimeter=0;" edge="1" parent="1">
          <mxGeometry relative="1" as="geometry">
            <mxPoint x="259.8099999999999" y="165.82999999999998" as="sourcePoint" />
            <mxPoint x="260.1985057471265" y="200" as="targetPoint" />
          </mxGeometry>
        </mxCell>
        <mxCell id="WELlDw33FFDGcxn5Jdse-189" value="" style="edgeStyle=orthogonalEdgeStyle;rounded=0;orthogonalLoop=1;jettySize=auto;html=1;exitX=0.339;exitY=0.8;exitDx=0;exitDy=0;exitPerimeter=0;" edge="1" parent="1" source="WELlDw33FFDGcxn5Jdse-175" target="WELlDw33FFDGcxn5Jdse-184">
          <mxGeometry relative="1" as="geometry" />
        </mxCell>
        <mxCell id="WELlDw33FFDGcxn5Jdse-175" value="" style="shape=line;html=1;strokeWidth=6;" vertex="1" parent="1">
          <mxGeometry x="-280" y="160" width="1120" height="10" as="geometry" />
        </mxCell>
        <mxCell id="WELlDw33FFDGcxn5Jdse-177" style="edgeStyle=orthogonalEdgeStyle;rounded=0;orthogonalLoop=1;jettySize=auto;html=1;" edge="1" parent="1" source="WELlDw33FFDGcxn5Jdse-15">
          <mxGeometry relative="1" as="geometry">
            <mxPoint x="260" y="160" as="targetPoint" />
          </mxGeometry>
        </mxCell>
        <mxCell id="WELlDw33FFDGcxn5Jdse-196" style="edgeStyle=orthogonalEdgeStyle;rounded=0;orthogonalLoop=1;jettySize=auto;html=1;entryX=0.5;entryY=0;entryDx=0;entryDy=0;" edge="1" parent="1" source="WELlDw33FFDGcxn5Jdse-180" target="WELlDw33FFDGcxn5Jdse-193">
          <mxGeometry relative="1" as="geometry" />
        </mxCell>
        <mxCell id="WELlDw33FFDGcxn5Jdse-180" value="글 작성" style="rounded=1;whiteSpace=wrap;html=1;arcSize=40;fillColor=#d5e8d4;strokeColor=#82b366;" vertex="1" parent="1">
          <mxGeometry x="-120" y="200" width="120" height="40" as="geometry" />
        </mxCell>
        <mxCell id="WELlDw33FFDGcxn5Jdse-199" style="edgeStyle=orthogonalEdgeStyle;rounded=0;orthogonalLoop=1;jettySize=auto;html=1;entryX=0.5;entryY=0;entryDx=0;entryDy=0;" edge="1" parent="1" source="WELlDw33FFDGcxn5Jdse-182" target="WELlDw33FFDGcxn5Jdse-193">
          <mxGeometry relative="1" as="geometry">
            <Array as="points">
              <mxPoint x="-220" y="260" />
              <mxPoint y="260" />
            </Array>
          </mxGeometry>
        </mxCell>
        <mxCell id="WELlDw33FFDGcxn5Jdse-182" value="마이페이지" style="rounded=1;whiteSpace=wrap;html=1;arcSize=40;fillColor=#e1d5e7;strokeColor=#9673a6;" vertex="1" parent="1">
          <mxGeometry x="-280" y="200" width="120" height="40" as="geometry" />
        </mxCell>
        <mxCell id="WELlDw33FFDGcxn5Jdse-198" style="edgeStyle=orthogonalEdgeStyle;rounded=0;orthogonalLoop=1;jettySize=auto;html=1;entryX=0.5;entryY=0;entryDx=0;entryDy=0;" edge="1" parent="1" source="WELlDw33FFDGcxn5Jdse-183" target="WELlDw33FFDGcxn5Jdse-193">
          <mxGeometry relative="1" as="geometry">
            <Array as="points">
              <mxPoint x="260" y="260" />
              <mxPoint y="260" />
            </Array>
          </mxGeometry>
        </mxCell>
        <mxCell id="WELlDw33FFDGcxn5Jdse-183" value="채팅 페이지" style="rounded=1;whiteSpace=wrap;html=1;arcSize=40;fillColor=#dae8fc;strokeColor=#6c8ebf;" vertex="1" parent="1">
          <mxGeometry x="200" y="200" width="120" height="40" as="geometry" />
        </mxCell>
        <mxCell id="WELlDw33FFDGcxn5Jdse-197" style="edgeStyle=orthogonalEdgeStyle;rounded=0;orthogonalLoop=1;jettySize=auto;html=1;" edge="1" parent="1" source="WELlDw33FFDGcxn5Jdse-184">
          <mxGeometry relative="1" as="geometry">
            <mxPoint y="280.0000000000001" as="targetPoint" />
            <Array as="points">
              <mxPoint x="100" y="260" />
              <mxPoint y="260" />
            </Array>
          </mxGeometry>
        </mxCell>
        <mxCell id="WELlDw33FFDGcxn5Jdse-184" value="관심 페이지" style="rounded=1;whiteSpace=wrap;html=1;arcSize=40;fillColor=#9E4E00;strokeColor=#4A2500;" vertex="1" parent="1">
          <mxGeometry x="40" y="200" width="120" height="40" as="geometry" />
        </mxCell>
        <mxCell id="WELlDw33FFDGcxn5Jdse-193" value="로그인" style="rhombus;whiteSpace=wrap;html=1;" vertex="1" parent="1">
          <mxGeometry x="-40" y="280" width="80" height="40" as="geometry" />
        </mxCell>
        <mxCell id="WELlDw33FFDGcxn5Jdse-194" value="no" style="edgeStyle=orthogonalEdgeStyle;html=1;align=left;verticalAlign=bottom;endArrow=open;endSize=8;rounded=0;entryX=1;entryY=0.5;entryDx=0;entryDy=0;" edge="1" source="WELlDw33FFDGcxn5Jdse-193" parent="1" target="WELlDw33FFDGcxn5Jdse-98">
          <mxGeometry x="-1" relative="1" as="geometry">
            <mxPoint x="-260" y="310" as="targetPoint" />
          </mxGeometry>
        </mxCell>
        <mxCell id="WELlDw33FFDGcxn5Jdse-195" value="yes" style="edgeStyle=orthogonalEdgeStyle;html=1;align=left;verticalAlign=top;endArrow=open;endSize=8;rounded=0;" edge="1" source="WELlDw33FFDGcxn5Jdse-193" parent="1" target="WELlDw33FFDGcxn5Jdse-225">
          <mxGeometry x="-1" relative="1" as="geometry">
            <mxPoint y="370" as="targetPoint" />
          </mxGeometry>
        </mxCell>
        <mxCell id="WELlDw33FFDGcxn5Jdse-201" value="" style="shape=line;html=1;strokeWidth=6;" vertex="1" parent="1">
          <mxGeometry x="460" y="640" width="160" height="10" as="geometry" />
        </mxCell>
        <mxCell id="WELlDw33FFDGcxn5Jdse-202" value="" style="edgeStyle=orthogonalEdgeStyle;html=1;verticalAlign=bottom;endArrow=open;endSize=8;rounded=0;exitX=0.25;exitY=0.5;exitDx=0;exitDy=0;exitPerimeter=0;entryX=0.5;entryY=0;entryDx=0;entryDy=0;fillColor=#1ba1e2;strokeColor=#4A2500;fontColor=#000000;" edge="1" source="WELlDw33FFDGcxn5Jdse-201" parent="1" target="WELlDw33FFDGcxn5Jdse-84">
          <mxGeometry relative="1" as="geometry">
            <mxPoint x="500" y="730" as="targetPoint" />
          </mxGeometry>
        </mxCell>
        <mxCell id="WELlDw33FFDGcxn5Jdse-206" value="" style="edgeStyle=orthogonalEdgeStyle;html=1;verticalAlign=bottom;endArrow=open;endSize=8;strokeColor=#6c8ebf;rounded=0;exitX=0.75;exitY=0.5;exitDx=0;exitDy=0;exitPerimeter=0;entryX=0.506;entryY=-0.083;entryDx=0;entryDy=0;entryPerimeter=0;fillColor=#dae8fc;" edge="1" parent="1" source="WELlDw33FFDGcxn5Jdse-201" target="WELlDw33FFDGcxn5Jdse-92">
          <mxGeometry relative="1" as="geometry">
            <mxPoint x="470" y="690" as="targetPoint" />
            <mxPoint x="510" y="655" as="sourcePoint" />
          </mxGeometry>
        </mxCell>
        <mxCell id="WELlDw33FFDGcxn5Jdse-209" value="로그인" style="rhombus;whiteSpace=wrap;html=1;" vertex="1" parent="1">
          <mxGeometry x="500" y="570" width="80" height="40" as="geometry" />
        </mxCell>
        <mxCell id="WELlDw33FFDGcxn5Jdse-210" value="no" style="edgeStyle=orthogonalEdgeStyle;html=1;align=left;verticalAlign=bottom;endArrow=open;endSize=8;rounded=0;entryX=0;entryY=0.5;entryDx=0;entryDy=0;" edge="1" source="WELlDw33FFDGcxn5Jdse-209" parent="1" target="WELlDw33FFDGcxn5Jdse-98">
          <mxGeometry x="-1" relative="1" as="geometry">
            <mxPoint x="850" y="338.85714285714283" as="targetPoint" />
          </mxGeometry>
        </mxCell>
        <mxCell id="WELlDw33FFDGcxn5Jdse-211" value="yes" style="edgeStyle=orthogonalEdgeStyle;html=1;align=left;verticalAlign=top;endArrow=open;endSize=8;rounded=0;" edge="1" source="WELlDw33FFDGcxn5Jdse-209" parent="1" target="WELlDw33FFDGcxn5Jdse-201">
          <mxGeometry x="-1" relative="1" as="geometry">
            <mxPoint x="840" y="570" as="targetPoint" />
          </mxGeometry>
        </mxCell>
        <mxCell id="WELlDw33FFDGcxn5Jdse-230" style="edgeStyle=orthogonalEdgeStyle;rounded=0;orthogonalLoop=1;jettySize=auto;html=1;exitX=0.933;exitY=0.441;exitDx=0;exitDy=0;exitPerimeter=0;fillColor=#dae8fc;strokeColor=#6c8ebf;" edge="1" parent="1" target="WELlDw33FFDGcxn5Jdse-228">
          <mxGeometry relative="1" as="geometry">
            <mxPoint x="70" y="380" as="targetPoint" />
            <mxPoint x="59.80000000000018" y="364.40999999999985" as="sourcePoint" />
          </mxGeometry>
        </mxCell>
        <mxCell id="WELlDw33FFDGcxn5Jdse-240" style="edgeStyle=orthogonalEdgeStyle;rounded=0;orthogonalLoop=1;jettySize=auto;html=1;entryX=0.5;entryY=0;entryDx=0;entryDy=0;exitX=0.063;exitY=0.577;exitDx=0;exitDy=0;exitPerimeter=0;fillColor=#e1d5e7;strokeColor=#9673a6;" edge="1" parent="1" source="WELlDw33FFDGcxn5Jdse-225" target="WELlDw33FFDGcxn5Jdse-239">
          <mxGeometry relative="1" as="geometry" />
        </mxCell>
        <mxCell id="WELlDw33FFDGcxn5Jdse-241" style="edgeStyle=orthogonalEdgeStyle;rounded=0;orthogonalLoop=1;jettySize=auto;html=1;exitX=0.334;exitY=0.364;exitDx=0;exitDy=0;exitPerimeter=0;fillColor=#d5e8d4;strokeColor=#82b366;entryX=0.5;entryY=0;entryDx=0;entryDy=0;" edge="1" parent="1" source="WELlDw33FFDGcxn5Jdse-225" target="WELlDw33FFDGcxn5Jdse-238">
          <mxGeometry relative="1" as="geometry">
            <mxPoint x="-100" y="380" as="sourcePoint" />
            <mxPoint x="-70" y="340" as="targetPoint" />
          </mxGeometry>
        </mxCell>
        <mxCell id="WELlDw33FFDGcxn5Jdse-225" value="" style="shape=line;html=1;strokeWidth=6;" vertex="1" parent="1">
          <mxGeometry x="-300" y="360" width="600" height="10" as="geometry" />
        </mxCell>
        <mxCell id="WELlDw33FFDGcxn5Jdse-231" style="edgeStyle=orthogonalEdgeStyle;rounded=0;orthogonalLoop=1;jettySize=auto;html=1;entryX=0;entryY=0.5;entryDx=0;entryDy=0;fillColor=#1ba1e2;strokeColor=#006EAF;exitX=0.5;exitY=1;exitDx=0;exitDy=0;" edge="1" parent="1" source="WELlDw33FFDGcxn5Jdse-228" target="WELlDw33FFDGcxn5Jdse-114">
          <mxGeometry relative="1" as="geometry">
            <Array as="points">
              <mxPoint x="60" y="820" />
              <mxPoint x="540" y="820" />
              <mxPoint x="540" y="780" />
            </Array>
          </mxGeometry>
        </mxCell>
        <mxCell id="WELlDw33FFDGcxn5Jdse-228" value="채팅방 클릭" style="rounded=1;whiteSpace=wrap;html=1;arcSize=40;fillColor=#dae8fc;strokeColor=#6c8ebf;" vertex="1" parent="1">
          <mxGeometry y="400" width="120" height="40" as="geometry" />
        </mxCell>
        <mxCell id="WELlDw33FFDGcxn5Jdse-280" value="" style="edgeStyle=orthogonalEdgeStyle;rounded=0;orthogonalLoop=1;jettySize=auto;html=1;" edge="1" parent="1" source="WELlDw33FFDGcxn5Jdse-235" target="WELlDw33FFDGcxn5Jdse-279">
          <mxGeometry relative="1" as="geometry" />
        </mxCell>
        <mxCell id="WELlDw33FFDGcxn5Jdse-235" value="관심작품 리스트" style="rounded=1;whiteSpace=wrap;html=1;arcSize=40;fillColor=#9E4E00;strokeColor=#4A2500;fontColor=#000000;" vertex="1" parent="1">
          <mxGeometry x="160" y="400" width="120" height="40" as="geometry" />
        </mxCell>
        <mxCell id="WELlDw33FFDGcxn5Jdse-236" style="edgeStyle=orthogonalEdgeStyle;rounded=0;orthogonalLoop=1;jettySize=auto;html=1;strokeColor=#4A2500;exitX=1;exitY=0.5;exitDx=0;exitDy=0;entryX=0;entryY=0.5;entryDx=0;entryDy=0;" edge="1" parent="1" source="WELlDw33FFDGcxn5Jdse-279" target="WELlDw33FFDGcxn5Jdse-31">
          <mxGeometry relative="1" as="geometry">
            <mxPoint x="400" y="330" as="sourcePoint" />
            <mxPoint x="430" y="380" as="targetPoint" />
            <Array as="points">
              <mxPoint x="320" y="500" />
              <mxPoint x="320" y="380" />
            </Array>
          </mxGeometry>
        </mxCell>
        <mxCell id="WELlDw33FFDGcxn5Jdse-237" style="edgeStyle=orthogonalEdgeStyle;rounded=0;orthogonalLoop=1;jettySize=auto;html=1;strokeColor=#4A2500;entryX=0.5;entryY=0;entryDx=0;entryDy=0;exitX=0.867;exitY=0.736;exitDx=0;exitDy=0;exitPerimeter=0;" edge="1" parent="1" source="WELlDw33FFDGcxn5Jdse-225" target="WELlDw33FFDGcxn5Jdse-235">
          <mxGeometry relative="1" as="geometry">
            <mxPoint x="380" y="300" as="sourcePoint" />
            <mxPoint x="480" y="500" as="targetPoint" />
          </mxGeometry>
        </mxCell>
        <mxCell id="WELlDw33FFDGcxn5Jdse-243" value="" style="edgeStyle=orthogonalEdgeStyle;rounded=0;orthogonalLoop=1;jettySize=auto;html=1;fillColor=#d5e8d4;strokeColor=#82b366;" edge="1" parent="1" source="WELlDw33FFDGcxn5Jdse-238" target="WELlDw33FFDGcxn5Jdse-242">
          <mxGeometry relative="1" as="geometry" />
        </mxCell>
        <mxCell id="WELlDw33FFDGcxn5Jdse-238" value="작품 등록 페이지" style="rounded=1;whiteSpace=wrap;html=1;arcSize=40;fillColor=#d5e8d4;strokeColor=#82b366;" vertex="1" parent="1">
          <mxGeometry x="-160" y="400" width="120" height="40" as="geometry" />
        </mxCell>
        <mxCell id="WELlDw33FFDGcxn5Jdse-253" style="edgeStyle=orthogonalEdgeStyle;rounded=0;orthogonalLoop=1;jettySize=auto;html=1;fillColor=#e1d5e7;strokeColor=#9673a6;" edge="1" parent="1" source="WELlDw33FFDGcxn5Jdse-239" target="WELlDw33FFDGcxn5Jdse-251">
          <mxGeometry relative="1" as="geometry" />
        </mxCell>
        <mxCell id="WELlDw33FFDGcxn5Jdse-239" value="마이페이지" style="rounded=1;whiteSpace=wrap;html=1;arcSize=40;fillColor=#e1d5e7;strokeColor=#9673a6;" vertex="1" parent="1">
          <mxGeometry x="-320" y="400" width="120" height="40" as="geometry" />
        </mxCell>
        <mxCell id="WELlDw33FFDGcxn5Jdse-244" style="edgeStyle=orthogonalEdgeStyle;rounded=0;orthogonalLoop=1;jettySize=auto;html=1;entryX=1;entryY=0.5;entryDx=0;entryDy=0;fillColor=#d5e8d4;strokeColor=#82b366;" edge="1" parent="1" source="WELlDw33FFDGcxn5Jdse-242" target="WELlDw33FFDGcxn5Jdse-15">
          <mxGeometry relative="1" as="geometry">
            <Array as="points">
              <mxPoint x="-100" y="560" />
              <mxPoint x="360" y="560" />
              <mxPoint x="360" y="100" />
            </Array>
          </mxGeometry>
        </mxCell>
        <mxCell id="WELlDw33FFDGcxn5Jdse-242" value="작성 완료" style="rounded=1;whiteSpace=wrap;html=1;arcSize=40;fillColor=#d5e8d4;strokeColor=#82b366;" vertex="1" parent="1">
          <mxGeometry x="-160" y="480" width="120" height="40" as="geometry" />
        </mxCell>
        <mxCell id="WELlDw33FFDGcxn5Jdse-265" style="edgeStyle=orthogonalEdgeStyle;rounded=0;orthogonalLoop=1;jettySize=auto;html=1;entryX=0.5;entryY=0;entryDx=0;entryDy=0;exitX=0.079;exitY=0.619;exitDx=0;exitDy=0;exitPerimeter=0;fillColor=#e1d5e7;strokeColor=#9673a6;" edge="1" parent="1" source="WELlDw33FFDGcxn5Jdse-251" target="WELlDw33FFDGcxn5Jdse-255">
          <mxGeometry relative="1" as="geometry">
            <mxPoint x="-660" y="660" as="sourcePoint" />
          </mxGeometry>
        </mxCell>
        <mxCell id="WELlDw33FFDGcxn5Jdse-270" style="edgeStyle=orthogonalEdgeStyle;rounded=0;orthogonalLoop=1;jettySize=auto;html=1;entryX=0.5;entryY=0;entryDx=0;entryDy=0;exitX=0.921;exitY=0.357;exitDx=0;exitDy=0;exitPerimeter=0;fillColor=#e1d5e7;strokeColor=#9673a6;" edge="1" parent="1" source="WELlDw33FFDGcxn5Jdse-251" target="WELlDw33FFDGcxn5Jdse-260">
          <mxGeometry relative="1" as="geometry" />
        </mxCell>
        <mxCell id="WELlDw33FFDGcxn5Jdse-251" value="" style="shape=line;html=1;strokeWidth=6;strokeColor=#9673a6;fillColor=#e1d5e7;" vertex="1" parent="1">
          <mxGeometry x="-720" y="630" width="760" height="10" as="geometry" />
        </mxCell>
        <mxCell id="WELlDw33FFDGcxn5Jdse-283" value="" style="edgeStyle=orthogonalEdgeStyle;rounded=0;orthogonalLoop=1;jettySize=auto;html=1;fillColor=#e1d5e7;strokeColor=#9673a6;" edge="1" parent="1" source="WELlDw33FFDGcxn5Jdse-255" target="WELlDw33FFDGcxn5Jdse-282">
          <mxGeometry relative="1" as="geometry" />
        </mxCell>
        <mxCell id="WELlDw33FFDGcxn5Jdse-255" value="구매내역" style="rounded=1;whiteSpace=wrap;html=1;arcSize=40;fillColor=#e1d5e7;strokeColor=#9673a6;" vertex="1" parent="1">
          <mxGeometry x="-720" y="680" width="120" height="40" as="geometry" />
        </mxCell>
        <mxCell id="WELlDw33FFDGcxn5Jdse-289" value="" style="edgeStyle=orthogonalEdgeStyle;rounded=0;orthogonalLoop=1;jettySize=auto;html=1;fillColor=#e1d5e7;strokeColor=#9673a6;" edge="1" parent="1" source="WELlDw33FFDGcxn5Jdse-256" target="WELlDw33FFDGcxn5Jdse-288">
          <mxGeometry relative="1" as="geometry" />
        </mxCell>
        <mxCell id="WELlDw33FFDGcxn5Jdse-256" value="내가 쓴 후기" style="rounded=1;whiteSpace=wrap;html=1;arcSize=40;fillColor=#e1d5e7;strokeColor=#9673a6;" vertex="1" parent="1">
          <mxGeometry x="-560" y="680" width="120" height="40" as="geometry" />
        </mxCell>
        <mxCell id="WELlDw33FFDGcxn5Jdse-257" value="인증하기" style="rounded=1;whiteSpace=wrap;html=1;arcSize=40;fillColor=#e1d5e7;strokeColor=#9673a6;" vertex="1" parent="1">
          <mxGeometry x="-400" y="680" width="120" height="40" as="geometry" />
        </mxCell>
        <mxCell id="WELlDw33FFDGcxn5Jdse-278" style="edgeStyle=orthogonalEdgeStyle;rounded=0;orthogonalLoop=1;jettySize=auto;html=1;fillColor=#e1d5e7;strokeColor=#9673a6;entryX=0.634;entryY=0.345;entryDx=0;entryDy=0;entryPerimeter=0;" edge="1" parent="1" source="WELlDw33FFDGcxn5Jdse-258" target="WELlDw33FFDGcxn5Jdse-271">
          <mxGeometry relative="1" as="geometry">
            <Array as="points">
              <mxPoint x="-180" y="900" />
            </Array>
          </mxGeometry>
        </mxCell>
        <mxCell id="WELlDw33FFDGcxn5Jdse-258" value="내 작품&lt;span style=&quot;caret-color: rgba(0, 0, 0, 0); color: rgba(0, 0, 0, 0); font-family: monospace; font-size: 0px; text-align: start; white-space: nowrap;&quot;&gt;%3CmxGraphModel%3E%3Croot%3E%3CmxCell%20id%3D%220%22%2F%3E%3CmxCell%20id%3D%221%22%20parent%3D%220%22%2F%3E%3CmxCell%20id%3D%222%22%20value%3D%22%EA%B5%AC%EB%A7%A4%EB%82%B4%EC%97%AD%22%20style%3D%22rounded%3D1%3BwhiteSpace%3Dwrap%3Bhtml%3D1%3BarcSize%3D40%3BfillColor%3D%23e1d5e7%3BstrokeColor%3D%239673a6%3B%22%20vertex%3D%221%22%20parent%3D%221%22%3E%3CmxGeometry%20x%3D%22-580%22%20y%3D%22760%22%20width%3D%22120%22%20height%3D%2240%22%20as%3D%22geometry%22%2F%3E%3C%2FmxCell%3E%3C%2Froot%3E%3C%2FmxGraphModel%3E&lt;/span&gt;" style="rounded=1;whiteSpace=wrap;html=1;arcSize=40;fillColor=#e1d5e7;strokeColor=#9673a6;" vertex="1" parent="1">
          <mxGeometry x="-240" y="680" width="120" height="40" as="geometry" />
        </mxCell>
        <mxCell id="WELlDw33FFDGcxn5Jdse-277" style="edgeStyle=orthogonalEdgeStyle;rounded=0;orthogonalLoop=1;jettySize=auto;html=1;entryX=0.9;entryY=0;entryDx=0;entryDy=0;entryPerimeter=0;fillColor=#e1d5e7;strokeColor=#9673a6;" edge="1" parent="1" source="WELlDw33FFDGcxn5Jdse-260" target="WELlDw33FFDGcxn5Jdse-271">
          <mxGeometry relative="1" as="geometry">
            <Array as="points" />
          </mxGeometry>
        </mxCell>
        <mxCell id="WELlDw33FFDGcxn5Jdse-260" value="받은 후기" style="rounded=1;whiteSpace=wrap;html=1;arcSize=40;fillColor=#e1d5e7;strokeColor=#9673a6;" vertex="1" parent="1">
          <mxGeometry x="-80" y="680" width="120" height="40" as="geometry" />
        </mxCell>
        <mxCell id="WELlDw33FFDGcxn5Jdse-262" value="" style="swimlane;startSize=0;fillColor=#f8cecc;strokeColor=#b85450;" vertex="1" parent="1">
          <mxGeometry x="700" y="120" width="540" height="680" as="geometry" />
        </mxCell>
        <mxCell id="WELlDw33FFDGcxn5Jdse-263" value="비회원 접근 가능" style="text;html=1;align=center;verticalAlign=middle;resizable=0;points=[];autosize=1;strokeColor=#b85450;fillColor=#f8cecc;" vertex="1" parent="WELlDw33FFDGcxn5Jdse-262">
          <mxGeometry x="10" width="100" height="30" as="geometry" />
        </mxCell>
        <mxCell id="WELlDw33FFDGcxn5Jdse-266" style="edgeStyle=orthogonalEdgeStyle;rounded=0;orthogonalLoop=1;jettySize=auto;html=1;entryX=0.5;entryY=0;entryDx=0;entryDy=0;exitX=0.079;exitY=0.619;exitDx=0;exitDy=0;exitPerimeter=0;fillColor=#e1d5e7;strokeColor=#9673a6;" edge="1" parent="1" target="WELlDw33FFDGcxn5Jdse-256">
          <mxGeometry relative="1" as="geometry">
            <mxPoint x="-500" y="636" as="sourcePoint" />
            <mxPoint x="-500" y="760" as="targetPoint" />
            <Array as="points">
              <mxPoint x="-500" y="650" />
              <mxPoint x="-500" y="650" />
            </Array>
          </mxGeometry>
        </mxCell>
        <mxCell id="WELlDw33FFDGcxn5Jdse-267" style="edgeStyle=orthogonalEdgeStyle;rounded=0;orthogonalLoop=1;jettySize=auto;html=1;exitX=0.079;exitY=0.619;exitDx=0;exitDy=0;exitPerimeter=0;fillColor=#e1d5e7;strokeColor=#9673a6;" edge="1" parent="1">
          <mxGeometry relative="1" as="geometry">
            <mxPoint x="-340.24" y="636" as="sourcePoint" />
            <mxPoint x="-340" y="680" as="targetPoint" />
            <Array as="points">
              <mxPoint x="-340" y="659" />
              <mxPoint x="-340" y="659" />
            </Array>
          </mxGeometry>
        </mxCell>
        <mxCell id="WELlDw33FFDGcxn5Jdse-268" style="edgeStyle=orthogonalEdgeStyle;rounded=0;orthogonalLoop=1;jettySize=auto;html=1;exitX=0.079;exitY=0.619;exitDx=0;exitDy=0;exitPerimeter=0;fillColor=#e1d5e7;strokeColor=#9673a6;" edge="1" parent="1">
          <mxGeometry relative="1" as="geometry">
            <mxPoint x="-180.24" y="636" as="sourcePoint" />
            <mxPoint x="-180" y="680" as="targetPoint" />
            <Array as="points">
              <mxPoint x="-180" y="659" />
              <mxPoint x="-180" y="659" />
            </Array>
          </mxGeometry>
        </mxCell>
        <mxCell id="WELlDw33FFDGcxn5Jdse-271" value="" style="shape=line;html=1;strokeWidth=6;strokeColor=#9673a6;fillColor=#e1d5e7;" vertex="1" parent="1">
          <mxGeometry x="-560" y="1080" width="600" height="10" as="geometry" />
        </mxCell>
        <mxCell id="WELlDw33FFDGcxn5Jdse-272" value="" style="edgeStyle=orthogonalEdgeStyle;html=1;verticalAlign=bottom;endArrow=open;endSize=8;strokeColor=#9673a6;rounded=0;fillColor=#e1d5e7;entryX=0.5;entryY=0;entryDx=0;entryDy=0;" edge="1" source="WELlDw33FFDGcxn5Jdse-271" parent="1" target="WELlDw33FFDGcxn5Jdse-275">
          <mxGeometry relative="1" as="geometry">
            <mxPoint x="-100" y="1160" as="targetPoint" />
          </mxGeometry>
        </mxCell>
        <mxCell id="WELlDw33FFDGcxn5Jdse-275" value="작가 상세 페이지" style="rounded=1;whiteSpace=wrap;html=1;arcSize=40;fillColor=#f8cecc;strokeColor=#b85450;" vertex="1" parent="1">
          <mxGeometry x="-320" y="1120" width="120" height="40" as="geometry" />
        </mxCell>
        <mxCell id="WELlDw33FFDGcxn5Jdse-279" value="작품 클릭" style="rounded=1;whiteSpace=wrap;html=1;arcSize=40;fillColor=#9E4E00;strokeColor=#4A2500;fontColor=#000000;" vertex="1" parent="1">
          <mxGeometry x="160" y="480" width="120" height="40" as="geometry" />
        </mxCell>
        <mxCell id="WELlDw33FFDGcxn5Jdse-287" style="edgeStyle=orthogonalEdgeStyle;rounded=0;orthogonalLoop=1;jettySize=auto;html=1;entryX=0.5;entryY=0;entryDx=0;entryDy=0;fillColor=#e1d5e7;strokeColor=#9673a6;" edge="1" parent="1" source="WELlDw33FFDGcxn5Jdse-282" target="WELlDw33FFDGcxn5Jdse-284">
          <mxGeometry relative="1" as="geometry" />
        </mxCell>
        <mxCell id="WELlDw33FFDGcxn5Jdse-282" value="구매 작품 리스트" style="rounded=1;whiteSpace=wrap;html=1;arcSize=40;fillColor=#e1d5e7;strokeColor=#9673a6;" vertex="1" parent="1">
          <mxGeometry x="-720" y="760" width="120" height="40" as="geometry" />
        </mxCell>
        <mxCell id="WELlDw33FFDGcxn5Jdse-284" value="후기" style="rhombus;whiteSpace=wrap;html=1;fillColor=#e1d5e7;strokeColor=#9673a6;" vertex="1" parent="1">
          <mxGeometry x="-700" y="840" width="80" height="40" as="geometry" />
        </mxCell>
        <mxCell id="WELlDw33FFDGcxn5Jdse-285" value="no" style="edgeStyle=orthogonalEdgeStyle;html=1;align=left;verticalAlign=bottom;endArrow=open;endSize=8;strokeColor=#9673a6;rounded=0;fillColor=#e1d5e7;entryX=0.5;entryY=0;entryDx=0;entryDy=0;" edge="1" source="WELlDw33FFDGcxn5Jdse-284" parent="1" target="WELlDw33FFDGcxn5Jdse-290">
          <mxGeometry x="-1" relative="1" as="geometry">
            <mxPoint x="-660" y="920" as="targetPoint" />
          </mxGeometry>
        </mxCell>
        <mxCell id="WELlDw33FFDGcxn5Jdse-286" value="yes" style="edgeStyle=orthogonalEdgeStyle;html=1;align=left;verticalAlign=top;endArrow=open;endSize=8;strokeColor=#9673a6;rounded=0;fillColor=#e1d5e7;entryX=0;entryY=0.5;entryDx=0;entryDy=0;" edge="1" source="WELlDw33FFDGcxn5Jdse-284" parent="1" target="WELlDw33FFDGcxn5Jdse-288">
          <mxGeometry x="-1" relative="1" as="geometry">
            <mxPoint x="-660" y="940" as="targetPoint" />
            <Array as="points">
              <mxPoint x="-580" y="860" />
              <mxPoint x="-580" y="1020" />
            </Array>
          </mxGeometry>
        </mxCell>
        <mxCell id="WELlDw33FFDGcxn5Jdse-294" style="edgeStyle=orthogonalEdgeStyle;rounded=0;orthogonalLoop=1;jettySize=auto;html=1;fillColor=#e1d5e7;strokeColor=#9673a6;entryX=0.1;entryY=0.345;entryDx=0;entryDy=0;entryPerimeter=0;" edge="1" parent="1" source="WELlDw33FFDGcxn5Jdse-288" target="WELlDw33FFDGcxn5Jdse-271">
          <mxGeometry relative="1" as="geometry">
            <mxPoint x="-500" y="1080" as="targetPoint" />
          </mxGeometry>
        </mxCell>
        <mxCell id="WELlDw33FFDGcxn5Jdse-288" value="후기 리스트" style="rounded=1;whiteSpace=wrap;html=1;arcSize=40;fillColor=#e1d5e7;strokeColor=#9673a6;" vertex="1" parent="1">
          <mxGeometry x="-560" y="1000" width="120" height="40" as="geometry" />
        </mxCell>
        <mxCell id="WELlDw33FFDGcxn5Jdse-292" value="" style="edgeStyle=orthogonalEdgeStyle;rounded=0;orthogonalLoop=1;jettySize=auto;html=1;fillColor=#e1d5e7;strokeColor=#9673a6;" edge="1" parent="1" source="WELlDw33FFDGcxn5Jdse-290" target="WELlDw33FFDGcxn5Jdse-291">
          <mxGeometry relative="1" as="geometry" />
        </mxCell>
        <mxCell id="WELlDw33FFDGcxn5Jdse-290" value="후기 작성 페이지" style="rounded=1;whiteSpace=wrap;html=1;arcSize=40;fillColor=#e1d5e7;strokeColor=#9673a6;" vertex="1" parent="1">
          <mxGeometry x="-720" y="920" width="120" height="40" as="geometry" />
        </mxCell>
        <mxCell id="WELlDw33FFDGcxn5Jdse-293" style="edgeStyle=orthogonalEdgeStyle;rounded=0;orthogonalLoop=1;jettySize=auto;html=1;fillColor=#e1d5e7;strokeColor=#9673a6;" edge="1" parent="1" source="WELlDw33FFDGcxn5Jdse-291" target="WELlDw33FFDGcxn5Jdse-288">
          <mxGeometry relative="1" as="geometry" />
        </mxCell>
        <mxCell id="WELlDw33FFDGcxn5Jdse-291" value="후기 작성 완료" style="rounded=1;whiteSpace=wrap;html=1;arcSize=40;fillColor=#e1d5e7;strokeColor=#9673a6;" vertex="1" parent="1">
          <mxGeometry x="-720" y="1000" width="120" height="40" as="geometry" />
        </mxCell>
      </root>
    </mxGraphModel>
  </diagram>
</mxfile>
